<svg id="Capa_1" data-name="Capa 1" xmlns="http://www.w3.org/2000/svg" viewBox="0 0 241.28 265.63"><defs><style>.cls-1{opacity:0.2;}.cls-2{fill:#1b1951;}</style></defs><title>fork</title><g class="cls-1"><path class="cls-2" d="M341.81,264.29l-51.59-67,.27-.15a6,6,0,0,0,2.17-8.12L232.25,84.37a5.95,5.95,0,0,0-10.18-.2,70.64,70.64,0,0,0-1.39,73l25.47,44.12a18.61,18.61,0,0,0,25.42,6.81l1.22-.7L305,285.53a21.42,21.42,0,1,0,36.78-21.24Z" transform="translate(-104.98 -81.4)"/><path class="cls-2" d="M151.45,120.82a8.15,8.15,0,0,0-3,11.14l22.78,39.46-7.06,4.08L141.4,136a8.16,8.16,0,0,0-14.13,8.15l22.78,39.46L143,187.73l-22.78-39.46a8.16,8.16,0,0,0-14.13,8.16l22.78,39.46,3.73,6.46,10.3,17.84a21.9,21.9,0,0,0,29.92,8l1.57-.9,46.71,106.62a21.9,21.9,0,1,0,37.7-21.77l-69-93.76,1.56-.91a21.9,21.9,0,0,0,8-29.92l-10.3-17.84-3.73-6.46L162.59,123.8A8.15,8.15,0,0,0,151.45,120.82Z" transform="translate(-104.98 -81.4)"/></g></svg>